<svg viewBox="0 0 11 13" fill="none" xmlns="http://www.w3.org/2000/svg">
  <path d="M4.465 0v3.2a.385.385 0 01-.385.385H.849v8.652c0 .421.342.763.763.763h7.776a.763.763 0 00.763-.763V.763A.763.763 0 009.388 0H4.465zm3.931 7.232L5.773 9.878a.385.385 0 01-.546 0L2.604 7.232a.385.385 0 01.273-.656h1.229V4.12c0-.212.172-.384.384-.384h2.02c.212 0 .384.172.384.384v2.456h1.229a.385.385 0 01.273.656z" fill="#8495F0"/>
  <path d="M3.695 2.816V.354L1.234 2.816H3.695zM6.125 6.961V4.505h-1.25V6.96a.385.385 0 01-.385.385H3.8L5.5 9.06l1.7-1.715h-.69a.385.385 0 01-.385-.385z" fill="#8495F0"/>
</svg>