<?xml version="1.0" encoding="UTF-8"?>
<svg id="SVGDoc" width="17" height="15" xmlns="http://www.w3.org/2000/svg" version="1.1" xmlns:xlink="http://www.w3.org/1999/xlink" xmlns:avocode="https://avocode.com/" viewBox="0 0 17 15"><defs></defs><desc>Generated with Avocode.</desc><g><g><title>Rectangle 11</title><path d="M0.68777,4.01654c0.65804,-0.36677 1.49952,-0.1491 1.87946,0.4863l5.04456,8.43654c0.37994,0.63539 0.15438,1.44771 -0.50365,1.81474c-0.65804,0.36677 -1.4994,0.1491 -1.87935,-0.4863l-5.04456,-8.43654c-0.37994,-0.63539 -0.1545,-1.44796 0.50354,-1.81474z" fill="#393b8f" fill-opacity="1"></path></g><g><title>Rectangle 11 copy</title><path d="M16.41138,0.24792c0.62233,0.4207 0.77362,1.24892 0.33783,1.85002l-8.94344,12.33265c-0.43579,0.60085 -1.29364,0.74697 -1.91608,0.32602c-0.62244,-0.42045 -0.77374,-1.24892 -0.33783,-1.85002l8.94333,-12.3324c0.43591,-0.6011 1.29375,-0.74721 1.9162,-0.32627z" fill="#393b8f" fill-opacity="1"></path></g></g></svg>