<svg width="12" height="12" viewBox="0 0 12 12" fill="none" xmlns="http://www.w3.org/2000/svg">
<path d="M6.44357 6.40401C6.03552 6.81207 5.37344 6.81207 4.96559 6.40401L2.67566 4.11401C2.26762 3.70615 2.26762 3.04405 2.67566 2.63619C3.08351 2.22813 3.74559 2.22813 4.15364 2.63619L5.51798 4.00038C5.62098 4.10318 5.78818 4.10318 5.89137 4.00038L9.58562 0.306012C9.99347 -0.102045 10.6556 -0.102045 11.0636 0.306012C11.2595 0.501965 11.3696 0.767832 11.3696 1.04492C11.3696 1.32202 11.2595 1.58788 11.0636 1.78384L6.44357 6.40401Z" fill="#4E9734"/>
<path d="M3.61195 10.6124L3.61203 10.6125C4.21522 11.2158 5.19389 11.2157 5.79712 10.6125L10.4172 5.99234C10.7069 5.7026 10.8696 5.30955 10.8696 4.89989C10.8696 4.49023 10.7069 4.09718 10.4172 3.80744C9.81392 3.2042 8.83525 3.20404 8.23206 3.80744C8.23203 3.80747 8.23201 3.80749 8.23198 3.80752L4.70466 7.3349L3.50719 6.13758C3.50719 6.13757 3.50718 6.13756 3.50717 6.13755C2.90396 5.53437 1.92537 5.5342 1.32219 6.1375C1.32213 6.13755 1.32208 6.13761 1.32202 6.13767L3.61195 10.6124ZM3.61195 10.6124L1.32219 8.32257L3.61195 10.6124Z" fill="#4E9734" stroke="white"/>
</svg>
