<svg viewBox="0 0 6 6" fill="none" xmlns="http://www.w3.org/2000/svg">
<path d="M5.7972 4.81819L3.97923 3.00003L5.7972 1.18197C6.06761 0.911453 6.06761 0.473252 5.7972 0.202736C5.66209 0.0676246 5.48495 1.66893e-05 5.30789 1.66893e-05C5.13054 1.66893e-05 4.95338 0.0675211 4.81838 0.202736L3.00001 2.02101L1.18179 0.202754C1.04669 0.0676417 0.869534 3.43323e-05 0.692325 3.43323e-05C0.515167 3.43323e-05 0.338129 0.0675387 0.202914 0.202754C-0.0675001 0.473149 -0.0675001 0.911366 0.202914 1.18199L2.02083 3.00005L0.20281 4.81819C-0.0676034 5.0886 -0.0676034 5.5269 0.20281 5.79731C0.473172 6.06752 0.911219 6.06752 1.18168 5.79731L3 3.97916L4.81817 5.79731C5.08869 6.06752 5.52678 6.06752 5.79709 5.79731C6.06761 5.5269 6.06761 5.0886 5.7972 4.81819Z" fill="white"/>
</svg>
