<svg xmlns="http://www.w3.org/2000/svg" viewBox="0 0 1685.71 229.69"><defs><style>.cls-1{fill:#fff}</style></defs><g id="Layer_2" data-name="Layer 2"><g id="Layer_1-2" data-name="Layer 1"><path class="cls-1" d="M641.87 110.43q-1.37-1-2.79-1.82a30.64 30.64 0 005.48-6.1 31.4 31.4 0 005.45-18c0-11.88-4.33-21.13-12.88-27.49-8-6-19.71-9-34.74-9H537v133.62h68.7a84 84 0 0017.13-1.78 51 51 0 0016.31-6.4 36.27 36.27 0 0012.54-13c3.17-5.52 4.78-12.41 4.78-20.49a36.54 36.54 0 00-4-17.58 34.43 34.43 0 00-10.59-11.96zm-74.45-32.64h34.44c5.51 0 10.13 1 13.73 2.89 1.8 1 3.63 2.54 3.63 7a7.56 7.56 0 01-3.74 7A21.27 21.27 0 01604 98.06h-36.58zm53.79 70.53c-3.87 2.38-9.09 3.58-15.52 3.58h-38.27v-24.1h37.4a44.31 44.31 0 0110.86 1.39 17.16 17.16 0 017.74 4c1 .91 2.26 2.56 2.26 6.39 0 4.15-1.38 6.84-4.47 8.74zm169.97-30.92a42.6 42.6 0 002.16-48.4 46 46 0 00-16.53-15.33 45.14 45.14 0 00-22-5.6h-68.5v133.57h30.43v-45.3h26.65l30.48 45.28 37.29.28-34.92-51.54a47.14 47.14 0 0014.94-12.96zm-24.65-18.47a16.15 16.15 0 01-5.75 5.6 15.36 15.36 0 01-8 2.07h-36V77.79h33.74a21.72 21.72 0 019.38 2 16.4 16.4 0 016.46 5.21 11.23 11.23 0 012.2 6.86 13.22 13.22 0 01-2.03 7.07zM953.29 66A71.42 71.42 0 00930 51.49a80.34 80.34 0 00-29.11-5.18 81.3 81.3 0 00-29.45 5.18A70.34 70.34 0 00848.16 66a67.49 67.49 0 000 97.63 70.28 70.28 0 0023.25 14.54 81.31 81.31 0 0029.45 5.18A80.32 80.32 0 00930 178.2a71.28 71.28 0 0023.32-14.52 66.14 66.14 0 0015.37-21.86 69.5 69.5 0 000-53.95A66.2 66.2 0 00953.29 66zM938 134.46a37.85 37.85 0 01-14.87 13.86 46.59 46.59 0 01-22.26 5.15c-8.63 0-16.24-1.73-22.61-5.15a37.42 37.42 0 01-14.77-13.76 36.83 36.83 0 01-5.25-19.72 36.83 36.83 0 015.25-19.72 37.44 37.44 0 0114.77-13.76c6.37-3.42 14-5.15 22.61-5.15a46.62 46.62 0 0122.26 5.15A38.1 38.1 0 01938 95.16a36.39 36.39 0 015.32 19.69 36.5 36.5 0 01-5.32 19.61zm47.84-56.67h41.12v103.85h30.43V77.79h42V48.05H985.84v29.74zm232.79 22.71h-62.79V48.05h-30.43v133.59h30.43v-51.4h62.79v51.4h30.43V48.05h-30.43v52.45zm69.35 81.14h102.04V151.9h-71.61v-23.75h62.03V98.41h-62.03V77.79h71.61V48.05h-102.04v133.59zM1530 117.4a42.6 42.6 0 002.13-48.4 46 46 0 00-16.53-15.33 45.14 45.14 0 00-22-5.6h-68.5v133.57h30.43v-45.3h26.65l30.48 45.28 37.29.28-34.95-51.54a47.14 47.14 0 0015-12.96zm-24.65-18.48a16.16 16.16 0 01-5.75 5.6 15.36 15.36 0 01-8 2.07h-36v-28.8h33.74a21.72 21.72 0 019.38 2 16.4 16.4 0 016.48 5.22 11.23 11.23 0 012.2 6.86 13.22 13.22 0 01-2.08 7.06zm175.31 22.36A37.28 37.28 0 001667.9 110a73.43 73.43 0 00-16.75-6.54 175.26 175.26 0 00-18.6-3.78c-9-1.42-16.25-3.35-21.63-5.75-3.75-1.67-5.35-4.07-5.35-8 0-2.12.59-4.88 5.15-7.35s10.5-3.74 17.62-3.74a37.28 37.28 0 0118.12 4.25 38.35 38.35 0 0112.89 11.27l4.05 5.64 21-21.84-2.64-3.89a51.3 51.3 0 00-21.56-17.88c-8.86-4-19.41-6.1-31.34-6.1a74.26 74.26 0 00-26.65 4.71 47.88 47.88 0 00-20.07 13.82 34.22 34.22 0 00-7.88 22.54c0 12.77 4.94 22.67 14.69 29.43 8.82 6.11 20.66 10.34 35.23 12.56 10.62 1.55 18.89 3.53 24.57 5.89 5 2.07 5.65 4.79 5.65 7.18a7.26 7.26 0 01-2.66 5.85 23.78 23.78 0 01-9.41 4.86 48 48 0 01-13.13 1.78c-8.44 0-15.57-1.67-21.2-5a69.36 69.36 0 01-17.41-15.13l-4.57-5.37-19.51 24.52 3 3.63a66.34 66.34 0 0026.16 19.81 85.77 85.77 0 0032.7 6c11.28 0 21.26-1.76 29.66-5.23 8.71-3.6 15.55-8.81 20.35-15.48a39.81 39.81 0 007.37-23.78c-.04-6.88-1.75-12.78-5.09-17.6zm-1457.17-1.2c-1-1-2.06-2-3.05-3.08-5.45 1.92-9.23 4.33-11.25 7.22a18.22 18.22 0 00-.78 19.82 18.32 18.32 0 008.26 7.08c3.48 1.63 8 2.58 13.62 2.77v-27.11l-3-3c-1.15-1.12-2.43-2.37-3.8-3.7zM225.1 84a14.07 14.07 0 002.44 7.41 40.4 40.4 0 002.75 3.91v-19a8.17 8.17 0 00-2 1.33A8.5 8.5 0 00225.1 84z"/><path class="cls-1" d="M0 229.69h230.29v-54.34c-10.25 0-19-1.8-26.17-5.28s-12.83-8.26-16.58-14a33.45 33.45 0 01-5.68-18.54 35.92 35.92 0 016.84-21.26c4.07-5.68 10.21-10.56 18.26-14.49A54.8 54.8 0 01203 95a22.92 22.92 0 01-2.42-10.11 26.41 26.41 0 014.74-14.7 34.88 34.88 0 0113.4-11.46 39.7 39.7 0 0111.53-3.69V0H0zm79.64-174l29.46 69.64c1.61 4 3.36 8.15 5.3 12.57.57 1.21 1.09 2.44 1.63 3.65.45-1.18 4.9-12.05 6.49-16l27.33-69.88h29.22l-19.23 44.66-32.35 75.16h-24.32l-52-119.82zm176.1.98a41.1 41.1 0 019.5 4.45 43.25 43.25 0 0115.41 16.48l.85 1.68-15.7 13-1.37-2.53a30 30 0 00-8.69-10.35v41.77L266.8 132a33.14 33.14 0 001.68-4.83 47.25 47.25 0 001.44-9.16l.14-2.2h21.19l-.09 2.44a58.29 58.29 0 01-3.08 17 61 61 0 01-6.22 12.75c3.34 3.65 6.65 7.29 10 11 3.72 4.14 6.77 7.63 9 10.32l3.29 3.88h-28.57l-.71-.76q-2.1-2.27-4.62-5.19c-1.11-1.3-2.18-2.51-3.22-3.65a57.92 57.92 0 01-11.3 6.46v59.55H486V0H255.74zm136.61 76.39c-5.3-2.18-13-4-22.83-5.47-13.14-2-23.82-5.8-31.73-11.32-8.6-5.92-12.93-14.66-12.93-25.93a30.21 30.21 0 016.91-19.82 42.56 42.56 0 0117.86-12.32 67.68 67.68 0 0124-4.17c10.75 0 20.22 1.87 28.18 5.47a46 46 0 0119.23 16l1.82 2.7-17.44 18.15-2.84-3.93a36.91 36.91 0 00-12.22-10.73 35.59 35.59 0 00-17.24-4c-6.73 0-12.34 1.21-16.72 3.58-4.83 2.63-5.4 5.75-5.4 7.86 0 4.14 1.75 6.73 5.66 8.48 5 2.27 11.79 4 20.15 5.4a167.79 167.79 0 0116.91 3.41 67.38 67.38 0 0115.06 5.87 33.12 33.12 0 0111.27 9.95 26.51 26.51 0 014.38 15.42 35.35 35.35 0 01-6.49 21.05c-4.26 5.92-10.35 10.54-18.14 13.76-7.53 3.13-16.5 4.69-26.69 4.69a77.07 77.07 0 01-29.46-5.42 59.44 59.44 0 01-23.47-17.76l-2.08-2.56 16.27-20.46 3.2 3.74a66.33 66.33 0 0016.27 14.16c5.35 3.13 12.15 4.69 20.08 4.69a44.33 44.33 0 0012.38-1.7 22 22 0 009.12-4.69 8 8 0 002.84-6.3c.01-2.52-.63-5.6-5.91-7.8z"/></g></g></svg>