<svg width="8" height="8" viewBox="0 0 8 8" fill="none" xmlns="http://www.w3.org/2000/svg">
<path d="M6.95251 2.93646H5.00031H3.23506H1.28286C0.803238 2.93646 0.410645 3.35943 0.410645 3.86322C0.410645 4.36701 0.803238 4.78998 1.28286 4.78998H3.23506H5.00031H6.95251C7.43213 4.78998 7.82472 4.36701 7.82472 3.86322C7.82472 3.35943 7.43213 2.93646 6.95251 2.93646Z" fill="#393B8F"/>
<path d="M3.19092 1.02839L3.19092 2.98058L3.19092 4.74584L3.19092 6.69804C3.19092 7.17766 3.61389 7.57025 4.11768 7.57025C4.62146 7.57025 5.04443 7.17766 5.04443 6.69804L5.04443 4.74584L5.04443 2.98058L5.04443 1.02839C5.04443 0.548767 4.62146 0.156173 4.11768 0.156173C3.61389 0.156173 3.19092 0.548767 3.19092 1.02839Z" fill="#393B8F"/>
</svg>
