<svg viewBox="0 0 12 12" fill="none" xmlns="http://www.w3.org/2000/svg">
  <path d="M3.76 2.217h4.48a.243.243 0 00.243-.243V0H3.517v1.974c0 .134.108.243.243.243z" fill="#4E9734"/>
  <path d="M11.813 3.018L9.285.478v1.496c0 .575-.468 1.043-1.043 1.043H3.76a1.044 1.044 0 01-1.042-1.043V0H1.102C.494 0 .001.493.001 1.1v9.8c0 .607.493 1.1 1.101 1.1H10.9c.608 0 1.1-.493 1.1-1.1V3.471a.642.642 0 00-.187-.454zm-1.679 6.457a.643.643 0 01-.643.643h-6.98a.643.643 0 01-.643-.643v-3.35c0-.355.287-.643.642-.643h6.981c.356 0 .643.288.643.643v3.35z" fill="#4E9734"/>
  <path d="M8.758 6.514H3.242a.4.4 0 100 .8h5.516a.4.4 0 100-.8zM7.958 8.114H4.042a.4.4 0 100 .8h3.916a.4.4 0 000-.8z" fill="#4E9734"/>
</svg>