<svg viewBox="0 0 14 9" fill="none" xmlns="http://www.w3.org/2000/svg">
  <path d="M6.82.679C4.34.679 2.091 2.035.433 4.238a.514.514 0 000 .613C2.092 7.057 4.34 8.413 6.819 8.413c2.48 0 4.727-1.356 6.386-3.56a.513.513 0 000-.612C11.546 2.035 9.298.679 6.82.679zm.177 6.59a2.73 2.73 0 01-2.9-2.901 2.735 2.735 0 012.545-2.545 2.73 2.73 0 012.9 2.9A2.744 2.744 0 016.997 7.27zM6.915 6.01a1.467 1.467 0 01-1.56-1.56 1.476 1.476 0 011.371-1.373 1.467 1.467 0 011.561 1.56 1.476 1.476 0 01-1.372 1.373z" fill="#929292"/>
</svg>