<?xml version="1.0" encoding="utf-8"?>
<!-- Generator: Adobe Illustrator 19.0.1, SVG Export Plug-In . SVG Version: 6.00 Build 0)  -->
<svg version="1.1" id="Слой_1" xmlns="http://www.w3.org/2000/svg" xmlns:xlink="http://www.w3.org/1999/xlink" x="0px" y="0px"
	 viewBox="537 282.3 1685.7 229.7" style="enable-background:new 537 282.3 1685.7 229.7;" xml:space="preserve">
<style type="text/css">
	.st0{fill:#FFFFFF;}
</style>
<title>Asset 1</title>
<g id="Layer_2">
	<g id="Layer_1-2">
		<path class="st0" d="M1178.9,392.7c-0.9-0.7-1.8-1.3-2.8-1.8c2.1-1.8,3.9-3.8,5.5-6.1c3.6-5.3,5.5-11.6,5.4-18
			c0-11.9-4.3-21.1-12.9-27.5c-8-6-19.7-9-34.7-9H1074V464h68.7c5.8,0,11.5-0.6,17.1-1.8c5.8-1.2,11.3-3.3,16.3-6.4
			c5.2-3.2,9.5-7.7,12.5-13c3.2-5.5,4.8-12.4,4.8-20.5c0.2-6.1-1.2-12.1-4-17.6C1186.9,399.9,1183.3,395.8,1178.9,392.7z
			 M1104.4,360.1h34.4c5.5,0,10.1,1,13.7,2.9c1.8,1,3.6,2.5,3.6,7c0.2,2.9-1.3,5.6-3.7,7c-3.4,2.2-7.4,3.4-11.5,3.4h-36.6V360.1z
			 M1158.2,430.6c-3.9,2.4-9.1,3.6-15.5,3.6h-38.3v-24.1h37.4c3.7,0,7.3,0.5,10.9,1.4c2.9,0.6,5.5,2,7.7,4c1,0.9,2.3,2.6,2.3,6.4
			C1162.7,426,1161.3,428.7,1158.2,430.6L1158.2,430.6z"/>
		<path class="st0" d="M1328.2,399.7c10.7-14.1,11.6-33.4,2.2-48.4c-4.2-6.4-9.8-11.7-16.5-15.3c-6.7-3.7-14.3-5.6-22-5.6h-68.5V464
			h30.4v-45.3h26.7l30.5,45.3l37.3,0.3l-34.9-51.5C1319.1,409.5,1324.2,405,1328.2,399.7z M1303.5,381.2c-1.4,2.3-3.4,4.2-5.8,5.6
			c-2.4,1.4-5.2,2.1-8,2.1h-36v-28.8h33.7c3.2,0,6.4,0.6,9.4,2c2.6,1.2,4.8,2.9,6.5,5.2c1.5,2,2.2,4.4,2.2,6.9
			C1305.6,376.7,1304.9,379.1,1303.5,381.2z"/>
		<path class="st0" d="M1490.3,348.3c-6.8-6.3-14.7-11.2-23.3-14.5c-9.3-3.5-19.2-5.3-29.1-5.2c-10.1-0.1-20,1.6-29.5,5.2
			c-8.6,3.3-16.5,8.2-23.3,14.5c-27,25.7-27.9,68.5-2.2,95.4c0.7,0.8,1.5,1.5,2.2,2.2c6.7,6.3,14.6,11.3,23.3,14.5
			c9.4,3.5,19.4,5.3,29.5,5.2c9.9,0.1,19.8-1.6,29.1-5.1c8.6-3.3,16.6-8.2,23.3-14.5c6.6-6.2,11.8-13.6,15.4-21.9
			c7.3-17.2,7.3-36.7,0-54C1502.1,361.9,1496.9,354.5,1490.3,348.3z M1475,416.8c-3.6,5.9-8.7,10.7-14.9,13.9
			c-6.9,3.5-14.5,5.3-22.3,5.1c-8.6,0-16.2-1.7-22.6-5.1c-6.1-3.1-11.2-7.9-14.8-13.8c-3.6-5.9-5.4-12.8-5.3-19.7
			c-0.1-6.9,1.7-13.8,5.3-19.7c3.6-5.9,8.7-10.6,14.8-13.8c6.4-3.4,14-5.1,22.6-5.1c7.7-0.2,15.4,1.6,22.3,5.1
			c6.1,3.2,11.3,7.9,14.9,13.8c3.6,5.9,5.5,12.8,5.3,19.7C1480.4,404.1,1478.6,410.9,1475,416.8z"/>
		<polygon class="st0" points="1522.8,360.1 1564,360.1 1564,464 1594.4,464 1594.4,360.1 1636.4,360.1 1636.4,330.4 1522.8,330.4 
					"/>
		<polygon class="st0" points="1755.6,382.8 1692.8,382.8 1692.8,330.4 1662.4,330.4 1662.4,464 1692.8,464 1692.8,412.5 
			1755.6,412.5 1755.6,464 1786.1,464 1786.1,330.4 1755.6,330.4 		"/>
		<polygon class="st0" points="1825,464 1927,464 1927,434.2 1855.4,434.2 1855.4,410.5 1917.4,410.5 1917.4,380.7 1855.4,380.7 
			1855.4,360.1 1927,360.1 1927,330.4 1825,330.4 		"/>
		<path class="st0" d="M2067,399.7c10.7-14.1,11.6-33.4,2.1-48.4c-4.2-6.4-9.8-11.7-16.5-15.3c-6.7-3.7-14.3-5.6-22-5.6h-68.5V464
			h30.4v-45.3h26.7l30.5,45.3l37.3,0.3l-35-51.5C2057.9,409.5,2063,405,2067,399.7z M2042.3,381.2c-1.4,2.3-3.4,4.2-5.8,5.6
			c-2.4,1.4-5.2,2.1-8,2.1h-36v-28.8h33.7c3.2,0,6.4,0.6,9.4,2c2.6,1.2,4.8,3,6.5,5.2c1.5,2,2.2,4.4,2.2,6.9
			C2044.4,376.7,2043.7,379.1,2042.3,381.2L2042.3,381.2z"/>
		<path class="st0" d="M2217.7,403.6c-3.3-4.7-7.7-8.6-12.8-11.3c-5.3-2.9-10.9-5.1-16.8-6.5c-6.1-1.6-12.3-2.9-18.6-3.8
			c-9-1.4-16.3-3.3-21.6-5.8c-3.8-1.7-5.3-4.1-5.3-8c0-2.1,0.6-4.9,5.2-7.3c4.6-2.5,10.5-3.7,17.6-3.7c6.3-0.1,12.5,1.3,18.1,4.3
			c5.1,2.7,9.5,6.6,12.9,11.3l4,5.6l21-21.8l-2.6-3.9c-5.4-7.8-12.9-14-21.6-17.9c-8.9-4-19.4-6.1-31.3-6.1
			c-9.1-0.1-18.1,1.5-26.6,4.7c-7.8,2.8-14.7,7.6-20.1,13.8c-5.2,6.3-8,14.3-7.9,22.5c0,12.8,4.9,22.7,14.7,29.4
			c8.8,6.1,20.7,10.3,35.2,12.6c10.6,1.6,18.9,3.5,24.6,5.9c5,2.1,5.6,4.8,5.6,7.2c0.1,2.3-0.9,4.4-2.7,5.9c-2.7,2.3-5.9,4-9.4,4.9
			c-4.3,1.2-8.7,1.8-13.1,1.8c-8.4,0-15.6-1.7-21.2-5c-6.6-4-12.5-9.2-17.4-15.1l-4.6-5.4l-19.5,24.5l3,3.6
			c6.9,8.7,15.9,15.5,26.2,19.8c10.4,4.1,21.5,6.2,32.7,6c11.3,0,21.3-1.8,29.7-5.2c8.7-3.6,15.6-8.8,20.4-15.5
			c4.9-6.9,7.5-15.3,7.4-23.8C2222.7,414.3,2221,408.4,2217.7,403.6z"/>
		<path class="st0" d="M760.5,402.4c-1-1-2.1-2-3-3.1c-5.5,1.9-9.2,4.3-11.3,7.2c-4.1,5.9-4.5,13.6-0.8,19.8c2,3.1,4.9,5.6,8.3,7.1
			c3.5,1.6,8,2.6,13.6,2.8v-27.1l-3-3C763.1,405,761.9,403.7,760.5,402.4z"/>
		<path class="st0" d="M762.1,366.3c0.1,2.7,0.9,5.2,2.4,7.4c0.8,1.4,1.8,2.7,2.8,3.9v-19c-0.7,0.3-1.4,0.8-2,1.3
			C763.4,361.5,762.2,363.8,762.1,366.3z"/>
		<path class="st0" d="M537,512h230.3v-54.3c-10.3,0-19-1.8-26.2-5.3s-12.8-8.3-16.6-14c-3.7-5.5-5.7-11.9-5.7-18.5
			c0-7.6,2.4-15.1,6.8-21.3c4.1-5.7,10.2-10.6,18.3-14.5c-1.5-2.2-2.8-4.4-4-6.8c-1.6-3.1-2.4-6.6-2.4-10.1
			c0.1-5.3,1.7-10.4,4.7-14.7c3.4-4.9,8-8.9,13.4-11.5c3.6-1.8,7.5-3.1,11.5-3.7v-55H537V512z M616.6,338l29.5,69.6
			c1.6,4,3.4,8.1,5.3,12.6c0.6,1.2,1.1,2.4,1.6,3.6c0.4-1.2,4.9-12,6.5-16l27.3-69.9h29.2l-19.2,44.7l-32.3,75.2h-24.3l-52-119.8
			L616.6,338z"/>
		<path class="st0" d="M792.7,339c3.3,1.1,6.5,2.6,9.5,4.5c6.5,4,11.8,9.7,15.4,16.5l0.8,1.7l-15.7,13l-1.4-2.5
			c-2.1-4.1-5-7.6-8.7-10.4v41.8l11.1,10.8c0.7-1.6,1.2-3.2,1.7-4.8c0.8-3,1.3-6.1,1.4-9.2l0.1-2.2h21.2l-0.1,2.4
			c-0.2,5.8-1.2,11.5-3.1,17c-1.6,4.5-3.7,8.8-6.2,12.8c3.3,3.6,6.7,7.3,10,11c3.7,4.1,6.8,7.6,9,10.3l3.3,3.9h-28.6l-0.7-0.8
			c-1.4-1.5-2.9-3.2-4.6-5.2c-1.1-1.3-2.2-2.5-3.2-3.6c-3.5,2.6-7.3,4.7-11.3,6.5v59.6H1023V282.3H792.7V339z M929.3,415.4
			c-5.3-2.2-13-4-22.8-5.5c-13.1-2-23.8-5.8-31.7-11.3c-8.6-5.9-12.9-14.7-12.9-25.9c-0.1-7.2,2.3-14.3,6.9-19.8
			c4.8-5.6,10.9-9.8,17.9-12.3c7.7-2.8,15.8-4.2,24-4.2c10.8,0,20.2,1.9,28.2,5.5c7.8,3.5,14.4,9,19.2,16l1.8,2.7l-17.4,18.1
			l-2.8-3.9c-3.2-4.4-7.4-8.1-12.2-10.7c-5.3-2.8-11.2-4.1-17.2-4c-6.7,0-12.3,1.2-16.7,3.6c-4.8,2.6-5.4,5.8-5.4,7.9
			c0,4.1,1.8,6.7,5.7,8.5c5,2.3,11.8,4,20.2,5.4c5.7,0.8,11.3,2,16.9,3.4c5.2,1.3,10.3,3.3,15.1,5.9c4.5,2.4,8.3,5.8,11.3,9.9
			c3,4.6,4.5,10,4.4,15.4c0.1,7.5-2.1,14.9-6.5,21.1c-4.3,5.9-10.4,10.5-18.1,13.8c-7.5,3.1-16.5,4.7-26.7,4.7
			c-10.1,0.1-20.1-1.7-29.5-5.4c-9.2-3.9-17.3-10-23.5-17.8l-2.1-2.6l16.3-20.5l3.2,3.7c4.6,5.6,10.1,10.4,16.3,14.2
			c5.3,3.1,12.1,4.7,20.1,4.7c4.2,0,8.4-0.6,12.4-1.7c3.4-0.8,6.5-2.4,9.1-4.7c1.9-1.6,2.9-3.9,2.8-6.3
			C935.3,420.6,934.6,417.6,929.3,415.4z"/>
	</g>
</g>
</svg>
